<?xml version="1.0" standalone="no"?>
<!DOCTYPE svg PUBLIC "-//W3C//DTD SVG 20010904//EN"
 "http://www.w3.org/TR/2001/REC-SVG-20010904/DTD/svg10.dtd">
<svg version="1.0" xmlns="http://www.w3.org/2000/svg"
 width="1440.000000pt" height="1440.000000pt" viewBox="0 0 1440.000000 1440.000000"
 preserveAspectRatio="xMidYMid meet">
<metadata>
Created by potrace 1.11, written by Peter Selinger 2001-2013
</metadata>
<g transform="translate(0.000000,1440.000000) scale(0.100000,-0.100000)"
fill="#000000" stroke="none">
<path d="M6945 14393 c-1646 -55 -3233 -685 -4490 -1783 -349 -304 -729 -714
-1012 -1091 -1235 -1645 -1703 -3723 -1297 -5757 497 -2494 2301 -4550 4712
-5373 1452 -495 3047 -514 4509 -53 2359 743 4187 2673 4804 5073 260 1013
296 2082 103 3111 -386 2062 -1677 3870 -3519 4930 -202 116 -592 309 -800
395 -960 398 -1975 583 -3010 548z m540 -243 c856 -40 1645 -217 2413 -542
211 -89 630 -301 822 -415 1400 -835 2463 -2111 3016 -3622 370 -1009 498
-2098 373 -3176 -246 -2134 -1478 -4045 -3329 -5160 -1486 -896 -3257 -1198
-4985 -850 -885 178 -1709 522 -2470 1030 -1080 722 -1930 1723 -2465 2905
-718 1586 -812 3426 -260 5080 450 1352 1291 2514 2445 3378 513 385 1121 716
1736 946 853 317 1806 468 2704 426z"/>
<path d="M8380 13583 c1 -4 17 -48 38 -98 l37 -90 69 -18 c43 -12 76 -16 87
-10 9 4 47 36 83 70 l66 62 -38 10 c-92 24 -89 25 -129 -8 -21 -17 -40 -31
-44 -31 -3 0 -14 20 -23 44 -15 40 -21 45 -64 55 -26 7 -55 14 -64 17 -10 3
-18 2 -18 -3z"/>
<path d="M6010 13358 c-96 -16 -179 -34 -184 -39 -5 -5 18 -166 58 -396 84
-479 74 -436 100 -429 11 3 44 8 73 12 57 7 50 15 68 -72 7 -30 62 -84 86 -84
20 0 69 55 69 77 0 9 -5 45 -11 80 -19 111 25 169 154 197 162 36 247 136 234
276 -8 91 -56 165 -133 203 -22 11 -34 27 -43 57 -14 47 -70 108 -123 133 -51
24 -142 20 -348 -15z m270 -146 c24 -16 22 -17 -89 -38 -97 -18 -118 -25 -137
-47 l-23 -26 -8 52 c-5 28 -6 53 -3 55 3 1 46 8 95 16 97 15 126 12 165 -12z
m20 -152 c0 -11 -60 -44 -67 -36 -3 3 10 14 28 25 39 24 39 24 39 11z m195
-90 c14 -45 -70 -134 -141 -150 -38 -9 -94 6 -108 28 -3 6 24 19 65 32 55 16
83 32 118 65 25 25 49 45 53 45 4 0 10 -9 13 -20z"/>
<path d="M8330 13351 c-78 -25 -139 -81 -160 -146 -7 -21 -10 -64 -8 -96 6
-79 42 -129 139 -194 42 -27 89 -67 104 -89 15 -21 54 -55 85 -75 62 -40 65
-55 20 -96 -32 -29 -139 -27 -197 3 -52 27 -71 55 -87 124 -11 53 -12 53 -56
60 -25 3 -63 7 -84 7 l-39 1 6 -69 c3 -38 15 -89 27 -114 26 -55 90 -117 148
-142 23 -11 42 -23 42 -27 0 -19 97 -111 140 -133 93 -46 236 -63 314 -36 124
43 199 203 147 316 -17 37 -115 145 -133 145 -4 0 -16 17 -27 38 -23 46 -71
94 -129 130 -48 31 -50 49 -7 73 55 31 94 16 192 -72 49 -43 94 -79 101 -79
22 0 62 48 62 75 0 37 -15 62 -77 128 -54 56 -55 58 -49 105 12 106 12 104
-16 125 -33 24 -120 35 -152 17 -19 -9 -33 -9 -77 5 -64 19 -193 28 -229 16z
m194 -163 l28 -14 -42 -13 c-23 -7 -61 -30 -85 -52 l-42 -39 -27 21 c-36 28
-34 87 4 107 31 16 125 10 164 -10z m189 -618 c7 -28 -31 -81 -73 -103 -25
-12 -46 -16 -75 -11 -61 10 -73 20 -33 28 44 8 122 57 143 90 19 28 30 27 38
-4z"/>
<path d="M4010 12589 c-162 -32 -320 -185 -320 -308 0 -91 65 -183 149 -212
21 -7 36 -22 45 -43 7 -18 28 -49 46 -69 l32 -37 -28 -23 c-15 -12 -35 -27
-43 -34 -14 -10 -10 -17 28 -53 47 -45 131 -90 169 -90 20 0 21 -3 12 -21 -39
-71 78 -169 202 -169 74 0 134 21 210 73 140 96 198 212 168 339 -11 44 -24
64 -76 116 -34 34 -68 62 -76 62 -8 0 -23 19 -33 42 -10 24 -40 64 -67 90 -26
26 -48 55 -48 65 0 51 -65 93 -147 93 -47 1 -47 1 -27 18 11 9 31 24 45 34
l24 16 -35 37 c-63 67 -141 92 -230 74z m81 -178 c13 -11 22 -21 19 -23 -3 -3
-27 -17 -55 -33 -27 -16 -72 -50 -100 -75 -50 -48 -69 -52 -92 -22 -31 39 -2
94 76 143 54 35 117 39 152 10z m213 -288 c8 -8 -136 -53 -168 -53 -12 0 -27
4 -35 9 -9 6 6 15 50 29 65 20 140 28 153 15z m184 -260 c6 -60 -84 -134 -160
-132 -74 1 -73 12 7 63 41 27 87 62 102 78 33 34 47 32 51 -9z"/>
<path d="M10447 12518 c-28 -38 -440 -627 -450 -644 -3 -6 39 -42 98 -83 80
-56 107 -80 115 -105 6 -18 25 -46 43 -63 51 -49 367 -273 394 -280 34 -8 91
21 103 53 15 40 -22 99 -95 150 -34 24 -59 49 -57 57 1 9 -30 38 -73 68 -87
63 -93 83 -41 135 58 58 95 48 255 -69 68 -51 109 -59 149 -31 27 18 29 64 6
100 -9 13 -43 43 -75 66 -47 32 -58 45 -54 62 4 17 -6 28 -48 56 -62 42 -70
69 -31 105 46 43 75 35 209 -60 130 -91 174 -105 208 -67 36 40 6 100 -78 156
-48 31 -54 39 -45 55 9 17 -17 38 -236 191 -135 94 -252 174 -259 176 -7 3
-24 -10 -38 -28z m122 -207 l25 -19 -37 -53 c-70 -101 -61 -94 -96 -69 l-31
21 23 32 c90 124 80 116 116 88z m-171 -290 c-2 -4 -30 -43 -62 -88 l-59 -82
-29 15 c-16 8 -28 18 -26 22 2 4 30 47 63 94 l60 86 28 -20 c15 -11 27 -23 25
-27z"/>
<path d="M6950 12033 c-932 -49 -1820 -361 -2580 -906 -69 -49 -132 -92 -140
-95 -8 -3 -25 -14 -38 -26 -23 -20 -35 -21 -420 -26 -285 -4 -403 -8 -418 -17
-12 -7 -26 -25 -33 -40 -6 -15 -78 -253 -159 -529 -134 -451 -153 -507 -190
-561 -23 -33 -56 -91 -75 -129 -19 -38 -66 -126 -105 -196 -39 -70 -89 -173
-111 -230 -21 -57 -64 -158 -95 -226 -121 -267 -282 -811 -331 -1117 -8 -55
-20 -125 -25 -155 -6 -30 -17 -116 -25 -190 -9 -74 -20 -160 -25 -190 -5 -30
-12 -134 -16 -230 l-6 -175 -209 -712 -209 -712 0 -536 c0 -585 0 -581 57
-603 18 -7 234 -12 618 -15 325 -3 597 -8 606 -11 8 -4 22 -19 32 -35 19 -33
77 -97 170 -189 144 -142 333 -312 346 -312 6 0 34 -20 63 -45 195 -168 240
-205 253 -205 8 0 16 -17 20 -42 11 -63 51 -98 112 -98 62 0 116 -29 264 -141
629 -475 1378 -795 2154 -918 281 -44 426 -55 765 -55 339 0 484 11 765 55
767 122 1494 430 2140 905 147 109 187 134 216 134 14 0 33 8 43 18 9 11 41
31 71 46 30 16 59 34 66 42 6 8 17 14 23 14 7 0 23 11 36 25 13 14 30 25 37
25 8 0 39 20 70 45 30 25 60 45 67 45 7 0 21 9 31 20 10 11 20 19 21 17 2 -2
10 -49 19 -106 16 -110 31 -143 73 -160 19 -8 260 -11 849 -9 l821 3 26 24
c14 13 28 35 31 50 3 15 -70 487 -165 1066 -94 572 -186 1135 -205 1250 -32
200 -35 245 -20 325 18 96 36 279 40 415 13 353 14 510 5 600 -5 55 -14 177
-20 270 -16 258 -57 511 -124 770 -19 72 -40 166 -47 210 -6 44 -28 125 -47
180 -19 55 -42 129 -52 165 -24 87 -53 167 -100 275 -21 50 -41 106 -45 125
-4 19 -29 78 -55 130 -26 52 -51 106 -55 120 -4 14 -28 61 -53 104 l-46 79
-106 639 c-103 612 -108 641 -134 666 l-26 27 -523 6 c-287 3 -534 9 -549 13
-15 5 -35 17 -44 27 -9 10 -21 19 -27 19 -5 0 -21 8 -35 18 -15 10 -45 24 -67
31 -22 8 -76 39 -120 71 -339 242 -789 471 -1206 615 -581 199 -1226 291
-1829 258z m180 -488 l0 -255 -615 0 -615 0 0 159 0 160 53 15 c295 86 675
148 1006 165 80 5 152 9 159 9 9 2 12 -55 12 -253z m561 225 c219 -22 620
-101 777 -151 l32 -11 0 -159 0 -159 -600 0 -600 0 0 253 0 252 138 -7 c76 -3
190 -11 253 -18z m-1881 -335 l0 -145 -282 0 c-251 1 -287 3 -316 19 l-34 17
111 52 c146 69 479 199 514 201 4 1 7 -64 7 -144z m2948 88 c141 -50 279 -109
432 -181 l105 -50 -352 -1 -353 -1 0 146 0 145 23 -6 c12 -4 78 -27 145 -52z
m-2948 -953 l0 -630 -64 0 c-49 0 -65 4 -70 16 -3 9 -6 228 -6 487 0 432 -2
474 -18 493 -34 42 -49 44 -366 44 -168 0 -306 2 -306 5 0 3 11 17 25 30 18
16 22 24 13 28 -8 3 -2 9 14 17 15 7 25 16 23 21 -3 4 4 10 15 14 11 4 18 10
15 14 -2 5 7 13 21 20 14 6 23 15 19 20 -3 5 3 12 14 16 11 3 22 12 25 20 5
13 54 15 326 15 l320 0 0 -630z m1320 0 l0 -630 -615 0 -615 0 0 630 0 630
615 0 615 0 0 -630z m1370 0 l0 -630 -600 0 -600 0 0 630 0 630 600 0 600 0 0
-630z m855 624 c13 -5 14 -9 4 -15 -9 -5 -5 -11 14 -20 14 -6 24 -15 22 -20
-3 -4 4 -10 15 -14 11 -4 18 -11 15 -16 -4 -5 5 -14 19 -20 14 -7 23 -15 21
-20 -3 -4 4 -10 14 -14 12 -4 18 -12 14 -20 -3 -8 2 -17 10 -21 9 -3 13 -12
11 -19 -4 -10 -40 -14 -145 -17 -134 -3 -139 -4 -164 -29 -25 -24 -31 -55
-108 -517 l-81 -492 -213 0 -213 0 0 630 0 630 374 0 c206 0 382 -3 391 -6z
m-3785 -2949 l0 -2635 395 0 395 0 0 -545 0 -545 -395 0 -395 0 0 -470 0 -470
-780 0 -780 0 0 470 0 470 -1085 0 -1085 0 0 508 -1 507 788 2673 788 2672
1077 0 1078 0 0 -2635z m6335 -1015 l601 -3650 -793 0 c-436 0 -793 3 -793 6
0 13 -261 1899 -266 1927 l-6 27 -356 -2 -357 -3 -137 -975 c-75 -536 -137
-976 -137 -977 -2 -7 -1581 -2 -1581 5 0 12 1191 7266 1195 7280 4 9 216 12
1017 12 l1013 0 600 -3650z m-6095 1990 l0 -630 -65 0 -65 0 0 630 0 630 65 0
65 0 0 -630z m1320 0 l0 -630 -615 0 -615 0 0 630 0 630 615 0 615 0 0 -630z
m1370 0 l0 -630 -600 0 -600 0 0 630 0 630 600 0 600 0 0 -630z m500 623 c0
-5 -47 -287 -103 -628 l-102 -620 -103 -3 -102 -3 0 631 0 630 205 0 c113 0
205 -3 205 -7z m-3190 -1968 l0 -625 -65 0 -65 0 0 625 0 625 65 0 65 0 0
-625z m1320 0 l0 -625 -615 0 -615 0 0 625 0 625 615 0 615 0 0 -625z m1370
227 l0 -397 -91 -90 c-50 -50 -145 -152 -211 -227 l-121 -138 -388 0 -389 0 0
625 0 625 600 0 600 0 0 -398z m276 371 c-3 -16 -26 -152 -51 -303 -25 -151
-48 -287 -51 -301 -3 -15 -23 -41 -45 -58 l-39 -32 0 361 0 360 96 0 96 0 -6
-27z m-2966 -1929 l0 -605 -37 3 -37 3 -27 90 -28 90 0 513 -1 512 65 0 65 0
0 -606z m1320 -4 l0 -610 -538 0 c-297 0 -573 3 -615 6 l-77 7 0 603 0 604
615 0 615 0 0 -610z m776 487 c-123 -165 -293 -408 -456 -652 -73 -110 -136
-204 -141 -210 -5 -5 -9 203 -9 488 l0 497 350 0 349 0 -93 -123z m-2096
-1287 c0 -11 -2 -20 -4 -20 -2 0 -6 9 -9 20 -3 11 -1 20 4 20 5 0 9 -9 9 -20z
m1134 -122 c-134 -196 -206 -296 -348 -485 l-121 -162 -5 332 c-4 233 -9 338
-17 353 -30 51 -44 54 -308 54 l-245 0 0 25 0 25 571 0 570 0 -97 -142z m906
-1508 l0 -530 -660 0 -660 0 0 530 0 530 660 0 660 0 0 -530z m-2040 241 l0
-58 -59 -42 c-33 -22 -62 -41 -65 -41 -3 0 -6 45 -6 100 l0 100 65 0 65 0 0
-59z m139 56 c-2 -1 -14 -11 -26 -21 -23 -19 -23 -19 -23 2 0 17 6 22 27 22
14 0 24 -1 22 -3z"/>
<path d="M3647 7068 c-197 -777 -360 -1423 -363 -1435 l-6 -23 366 0 366 0 0
1435 c0 789 -1 1435 -3 1435 -2 0 -164 -636 -360 -1412z"/>
<path d="M10182 7678 c-57 -568 -106 -1054 -109 -1080 l-6 -48 227 0 c124 0
226 3 226 8 1 31 -223 2121 -228 2135 -4 10 -54 -447 -110 -1015z"/>
<path d="M3738 2350 l-227 -350 71 -47 70 -47 22 27 c11 14 44 62 71 106 47
75 52 80 93 87 24 3 45 5 47 2 2 -2 -32 -57 -75 -123 -44 -66 -80 -130 -80
-143 0 -36 28 -81 55 -88 31 -8 80 21 105 61 10 17 33 44 51 60 l32 30 -6
-110 -5 -110 89 -59 c64 -42 95 -70 114 -102 44 -76 88 -92 130 -49 25 24 25
24 25 235 0 233 3 249 62 293 22 17 68 32 140 47 114 24 148 43 148 86 0 17
-10 30 -32 44 -59 36 -103 35 -252 -4 -155 -41 -186 -44 -210 -18 -15 18 -8
21 191 67 115 26 212 50 217 53 4 2 -35 33 -88 67 l-96 63 -72 -19 c-40 -10
-74 -19 -74 -19 -1 0 -5 12 -9 28 -9 36 -43 72 -69 72 -38 0 -83 -37 -121 -99
-30 -49 -45 -63 -74 -71 -20 -5 -41 -10 -48 -10 -7 0 30 65 82 145 52 79 95
149 95 154 0 10 -121 91 -136 91 -5 0 -111 -158 -236 -350z m419 -522 c-2 -13
-4 -3 -4 22 0 25 2 35 4 23 2 -13 2 -33 0 -45z"/>
<path d="M9968 2408 l-266 -160 210 -351 c116 -194 215 -356 220 -362 5 -6 19
-3 37 8 l29 17 31 -52 c42 -75 84 -112 124 -112 39 0 419 224 450 266 26 34
17 72 -21 87 -36 15 -48 11 -202 -83 -69 -42 -136 -76 -150 -76 -26 0 -90 34
-90 48 0 4 78 55 174 113 l174 105 -36 62 c-28 48 -40 61 -54 56 -13 -4 -16
-1 -12 10 3 9 -1 27 -10 41 -27 42 -64 33 -195 -45 -64 -38 -128 -70 -141 -70
-31 0 -93 37 -85 50 3 5 71 49 150 96 80 48 145 91 145 96 0 5 -7 23 -16 40
-15 29 -15 34 0 59 21 35 20 62 -2 82 -35 32 -76 21 -189 -49 -219 -135 -251
-154 -257 -154 -8 0 -60 79 -55 84 2 1 88 53 192 115 103 62 187 115 187 118
0 9 -60 112 -68 117 -4 2 -127 -68 -274 -156z"/>
<path d="M5220 1985 c-152 -43 -263 -178 -306 -373 -39 -175 28 -344 171 -427
22 -14 55 -45 73 -70 36 -51 128 -115 205 -142 35 -12 81 -18 142 -18 77 0 98
4 148 27 145 68 247 252 247 445 0 112 -27 172 -115 259 -40 39 -80 84 -88
100 -74 143 -316 243 -477 199z m181 -157 c43 -12 52 -28 16 -28 -41 0 -143
-58 -190 -109 -52 -55 -101 -147 -121 -224 l-13 -52 -8 43 c-22 129 65 316
169 363 47 21 93 24 147 7z m137 -164 c19 -6 22 -13 22 -60 0 -105 -65 -244
-135 -293 -44 -30 -100 -44 -142 -36 l-35 6 4 67 c11 165 125 309 253 321 6 0
20 -2 33 -5z m201 -294 c-25 -119 -92 -220 -172 -259 -48 -23 -119 -27 -164
-10 l-28 11 46 12 c61 16 125 55 177 107 45 45 116 178 129 239 l7 35 8 -40
c5 -24 4 -60 -3 -95z"/>
<path d="M8905 1949 c-243 -35 -380 -256 -316 -508 38 -152 99 -248 197 -310
23 -15 67 -55 99 -90 67 -72 128 -106 211 -120 169 -27 337 64 393 213 23 62
21 74 -23 115 l-25 24 -33 -21 c-18 -12 -49 -47 -68 -78 -67 -110 -153 -148
-245 -109 l-40 16 68 29 c127 54 194 132 216 254 19 102 23 96 -78 96 l-88 0
-6 -55 c-7 -66 -31 -112 -76 -142 -40 -27 -115 -40 -135 -24 -20 17 -36 90
-36 167 0 85 30 142 98 185 59 37 119 39 194 4 67 -31 111 -32 138 -3 46 49 4
116 -97 154 -41 16 -42 17 -22 33 20 16 20 17 -21 64 -53 60 -109 93 -184 106
-33 6 -60 10 -60 10 -1 -1 -28 -5 -61 -10z m121 -174 l26 -17 -54 -22 c-101
-41 -163 -101 -208 -200 l-27 -59 -6 33 c-14 69 -8 151 15 192 48 85 178 123
254 73z"/>
<path d="M6540 1927 c0 -8 100 -176 108 -181 4 -2 39 -7 77 -11 l70 -7 67 80
c37 44 64 83 61 86 -4 3 -34 6 -67 6 -56 0 -63 -3 -97 -36 l-36 -35 -27 45
c-25 43 -30 46 -69 46 -23 0 -52 3 -64 6 -13 4 -23 4 -23 1z"/>
<path d="M6561 1694 c-150 -40 -220 -182 -155 -312 29 -58 65 -92 135 -128 27
-13 49 -30 49 -37 0 -32 74 -98 151 -136 l80 -39 -31 -25 c-36 -31 -84 -42
-144 -33 -79 12 -134 66 -151 149 l-6 28 -82 -3 -82 -3 2 -40 c7 -105 64 -192
157 -241 36 -19 60 -39 67 -57 7 -15 32 -46 57 -67 60 -54 149 -81 262 -81
136 -1 213 38 264 132 25 45 28 59 24 123 -4 89 -35 142 -109 188 -27 17 -49
38 -49 46 0 8 -11 35 -25 58 -27 47 -87 93 -154 120 -45 18 -51 28 -22 44 50
26 108 9 186 -54 30 -25 69 -53 86 -61 29 -15 31 -15 59 14 17 16 30 37 30 46
0 34 -44 95 -99 138 -38 29 -60 56 -69 81 -13 36 -13 39 12 65 28 30 33 53 14
69 -7 5 -93 15 -190 21 -212 13 -199 13 -267 -5z m187 -145 c39 -13 35 -21
-25 -49 -27 -12 -62 -36 -80 -52 -31 -30 -33 -31 -58 -14 -14 9 -29 24 -32 32
-10 26 7 63 35 78 32 18 116 20 160 5z m241 -671 c-20 -50 -71 -81 -132 -81
-29 0 -66 7 -81 15 l-29 15 51 12 c61 15 134 59 158 96 l17 27 15 -27 c11 -22
11 -32 1 -57z"/>
<path d="M7738 1703 c-46 -4 -48 -5 -48 -36 0 -35 57 -707 65 -773 5 -35 9
-41 28 -38 12 2 50 5 83 7 l62 5 6 -58 c6 -51 12 -63 42 -90 33 -28 38 -30 57
-17 12 8 30 25 40 39 18 23 17 32 -8 329 -34 410 -30 382 -71 419 -39 34 -56
31 -92 -15 l-19 -24 -7 82 c-4 45 -10 103 -13 130 -6 53 3 50 -125 40z"/>
</g>
</svg>
